<?xml version="1.0" encoding="UTF-8"?>
<svg xmlns="http://www.w3.org/2000/svg" xmlns:xlink="http://www.w3.org/1999/xlink" width="34.5pt" height="30.000001pt" viewBox="0 0 34.5 30.000001" version="1.2">
<defs>
<clipPath id="clip1">
  <path d="M 2.300781 1.765625 L 28.21875 1.765625 L 28.21875 27.6875 L 2.300781 27.6875 Z M 2.300781 1.765625 "/>
</clipPath>
</defs>
<g id="surface1">
<g clip-path="url(#clip1)" clip-rule="nonzero">
<path style=" stroke:none;fill-rule:nonzero;fill:rgb(6.269836%,5.879211%,5.099487%);fill-opacity:1;" d="M 15.261719 26.761719 C 8.609375 26.761719 3.222656 21.375 3.222656 14.726562 C 3.222656 8.078125 8.609375 2.6875 15.261719 2.6875 C 21.90625 2.6875 27.296875 8.078125 27.296875 14.726562 C 27.296875 21.375 21.90625 26.761719 15.261719 26.761719 Z M 27.570312 16.566406 C 27.601562 16.375 27.667969 16.191406 27.777344 16.03125 C 27.96875 15.738281 28.21875 15.257812 28.21875 14.726562 C 28.21875 14.195312 27.96875 13.714844 27.777344 13.421875 C 27.671875 13.261719 27.601562 13.078125 27.570312 12.886719 C 27.558594 12.8125 27.550781 12.742188 27.539062 12.671875 C 27.503906 12.480469 27.515625 12.285156 27.566406 12.097656 C 27.660156 11.761719 27.75 11.226562 27.585938 10.722656 C 27.421875 10.214844 27.039062 9.835938 26.761719 9.617188 C 26.613281 9.5 26.488281 9.347656 26.402344 9.175781 C 26.371094 9.109375 26.335938 9.042969 26.300781 8.976562 C 26.210938 8.804688 26.164062 8.617188 26.152344 8.421875 C 26.136719 8.074219 26.058594 7.539062 25.742188 7.109375 C 25.429688 6.675781 24.945312 6.433594 24.617188 6.3125 C 24.4375 6.246094 24.269531 6.136719 24.132812 6 C 24.085938 5.949219 24.035156 5.902344 23.984375 5.851562 C 23.847656 5.714844 23.742188 5.550781 23.671875 5.367188 C 23.550781 5.039062 23.308594 4.554688 22.878906 4.242188 C 22.445312 3.929688 21.914062 3.847656 21.5625 3.832031 C 21.371094 3.824219 21.179688 3.773438 21.007812 3.683594 C 20.941406 3.648438 20.878906 3.617188 20.8125 3.585938 C 20.640625 3.496094 20.488281 3.375 20.367188 3.222656 C 20.148438 2.949219 19.769531 2.566406 19.265625 2.402344 C 18.757812 2.238281 18.226562 2.324219 17.886719 2.417969 C 17.703125 2.46875 17.503906 2.480469 17.316406 2.449219 C 17.246094 2.4375 17.171875 2.425781 17.101562 2.414062 C 16.90625 2.386719 16.726562 2.316406 16.5625 2.207031 C 16.269531 2.015625 15.792969 1.765625 15.261719 1.765625 C 14.726562 1.765625 14.25 2.015625 13.957031 2.207031 C 13.792969 2.316406 13.609375 2.386719 13.417969 2.414062 C 13.347656 2.425781 13.277344 2.4375 13.203125 2.449219 C 13.011719 2.480469 12.820312 2.46875 12.632812 2.417969 C 12.292969 2.324219 11.761719 2.238281 11.253906 2.402344 C 10.75 2.566406 10.371094 2.949219 10.152344 3.222656 C 10.03125 3.375 9.878906 3.5 9.707031 3.585938 C 9.640625 3.617188 9.578125 3.648438 9.511719 3.683594 C 9.339844 3.773438 9.152344 3.824219 8.957031 3.832031 C 8.605469 3.847656 8.074219 3.929688 7.640625 4.242188 C 7.210938 4.554688 6.96875 5.039062 6.847656 5.367188 C 6.777344 5.550781 6.671875 5.714844 6.535156 5.851562 C 6.484375 5.902344 6.433594 5.949219 6.386719 6 C 6.25 6.140625 6.085938 6.246094 5.902344 6.3125 C 5.574219 6.433594 5.089844 6.675781 4.773438 7.109375 C 4.464844 7.539062 4.382812 8.070312 4.367188 8.421875 C 4.359375 8.617188 4.308594 8.804688 4.21875 8.976562 C 4.183594 9.042969 4.148438 9.109375 4.117188 9.175781 C 4.03125 9.347656 3.910156 9.5 3.757812 9.621094 C 3.480469 9.839844 3.097656 10.21875 2.933594 10.722656 C 2.769531 11.226562 2.859375 11.761719 2.953125 12.097656 C 3.003906 12.285156 3.015625 12.480469 2.980469 12.671875 C 2.972656 12.742188 2.960938 12.8125 2.949219 12.886719 C 2.921875 13.078125 2.851562 13.261719 2.742188 13.421875 C 2.546875 13.714844 2.300781 14.195312 2.300781 14.726562 C 2.300781 15.257812 2.546875 15.738281 2.742188 16.03125 C 2.851562 16.191406 2.921875 16.375 2.949219 16.566406 C 2.960938 16.640625 2.972656 16.710938 2.980469 16.78125 C 3.015625 16.972656 3.003906 17.167969 2.953125 17.355469 C 2.859375 17.691406 2.769531 18.226562 2.933594 18.730469 C 3.097656 19.234375 3.480469 19.617188 3.757812 19.832031 C 3.90625 19.953125 4.03125 20.105469 4.117188 20.277344 C 4.148438 20.34375 4.183594 20.410156 4.21875 20.476562 C 4.308594 20.648438 4.359375 20.835938 4.367188 21.03125 C 4.382812 21.382812 4.464844 21.914062 4.773438 22.34375 C 5.089844 22.777344 5.574219 23.015625 5.902344 23.140625 C 6.082031 23.207031 6.25 23.316406 6.386719 23.453125 C 6.433594 23.503906 6.484375 23.550781 6.535156 23.601562 C 6.671875 23.738281 6.777344 23.902344 6.847656 24.085938 C 6.96875 24.414062 7.210938 24.898438 7.640625 25.210938 C 8.074219 25.523438 8.605469 25.605469 8.957031 25.617188 C 9.148438 25.628906 9.339844 25.679688 9.511719 25.769531 C 9.578125 25.800781 9.640625 25.835938 9.707031 25.867188 C 9.878906 25.957031 10.03125 26.078125 10.152344 26.230469 C 10.371094 26.503906 10.75 26.886719 11.253906 27.050781 C 11.761719 27.214844 12.292969 27.128906 12.632812 27.035156 C 12.816406 26.984375 13.015625 26.972656 13.207031 27.003906 C 13.277344 27.015625 13.347656 27.027344 13.417969 27.039062 C 13.613281 27.066406 13.792969 27.136719 13.957031 27.246094 C 14.25 27.4375 14.726562 27.6875 15.261719 27.6875 C 15.792969 27.6875 16.269531 27.4375 16.5625 27.246094 C 16.726562 27.136719 16.910156 27.066406 17.101562 27.039062 C 17.171875 27.027344 17.242188 27.015625 17.3125 27.003906 C 17.507812 26.972656 17.699219 26.980469 17.886719 27.035156 C 18.226562 27.128906 18.757812 27.214844 19.265625 27.050781 C 19.769531 26.886719 20.148438 26.503906 20.367188 26.230469 C 20.488281 26.078125 20.640625 25.953125 20.8125 25.867188 C 20.878906 25.835938 20.945312 25.800781 21.007812 25.769531 C 21.179688 25.679688 21.371094 25.628906 21.5625 25.617188 C 21.914062 25.605469 22.445312 25.523438 22.878906 25.210938 C 23.308594 24.898438 23.550781 24.414062 23.671875 24.085938 C 23.742188 23.902344 23.847656 23.738281 23.984375 23.601562 C 24.035156 23.550781 24.085938 23.503906 24.136719 23.453125 C 24.273438 23.3125 24.433594 23.207031 24.617188 23.140625 C 24.945312 23.015625 25.429688 22.777344 25.742188 22.34375 C 26.058594 21.914062 26.136719 21.378906 26.152344 21.03125 C 26.164062 20.835938 26.210938 20.644531 26.300781 20.476562 C 26.335938 20.410156 26.371094 20.34375 26.402344 20.277344 C 26.488281 20.105469 26.609375 19.953125 26.761719 19.832031 C 27.035156 19.617188 27.421875 19.234375 27.585938 18.730469 C 27.75 18.226562 27.660156 17.691406 27.566406 17.355469 C 27.515625 17.167969 27.503906 16.972656 27.539062 16.78125 C 27.550781 16.710938 27.558594 16.640625 27.570312 16.566406 "/>
</g>
<path style=" stroke:none;fill-rule:nonzero;fill:rgb(6.269836%,5.879211%,5.099487%);fill-opacity:1;" d="M 15.269531 6.164062 L 15.648438 6.949219 L 16.507812 7.085938 L 15.878906 7.6875 L 16.015625 8.546875 L 15.25 8.132812 L 14.472656 8.53125 L 14.628906 7.671875 L 14.011719 7.058594 L 14.875 6.941406 L 15.269531 6.164062 "/>
<path style=" stroke:none;fill-rule:nonzero;fill:rgb(6.269836%,5.879211%,5.099487%);fill-opacity:1;" d="M 17.703125 7.28125 L 20.507812 7.515625 L 17.699219 7.691406 Z M 17.703125 7.28125 "/>
<path style=" stroke:none;fill-rule:nonzero;fill:rgb(6.269836%,5.879211%,5.099487%);fill-opacity:1;" d="M 12.816406 7.636719 L 10.011719 7.402344 L 12.820312 7.230469 Z M 12.816406 7.636719 "/>
<path style=" stroke:none;fill-rule:nonzero;fill:rgb(6.269836%,5.879211%,5.099487%);fill-opacity:1;" d="M 15.265625 22.835938 L 15.484375 23.285156 L 15.980469 23.363281 L 15.613281 23.710938 L 15.695312 24.207031 L 15.253906 23.96875 L 14.804688 24.199219 L 14.894531 23.703125 L 14.542969 23.347656 L 15.039062 23.28125 L 15.265625 22.835938 "/>
<path style=" stroke:none;fill-rule:nonzero;fill:rgb(6.269836%,5.879211%,5.099487%);fill-opacity:1;" d="M 16.667969 23.476562 L 18.285156 23.613281 L 16.664062 23.714844 Z M 16.667969 23.476562 "/>
<path style=" stroke:none;fill-rule:nonzero;fill:rgb(6.269836%,5.879211%,5.099487%);fill-opacity:1;" d="M 13.851562 23.683594 L 12.234375 23.546875 L 13.855469 23.449219 Z M 13.851562 23.683594 "/>
<path style=" stroke:none;fill-rule:nonzero;fill:rgb(6.269836%,5.879211%,5.099487%);fill-opacity:1;" d="M 15.261719 3.960938 C 9.324219 3.960938 4.496094 8.792969 4.496094 14.726562 C 4.496094 20.660156 9.324219 25.492188 15.261719 25.492188 C 21.195312 25.492188 26.023438 20.660156 26.023438 14.726562 C 26.023438 8.792969 21.195312 3.960938 15.261719 3.960938 Z M 15.261719 26.039062 C 9.023438 26.039062 3.949219 20.964844 3.949219 14.726562 C 3.949219 8.488281 9.023438 3.414062 15.261719 3.414062 C 21.496094 3.414062 26.570312 8.488281 26.570312 14.726562 C 26.570312 20.964844 21.496094 26.039062 15.261719 26.039062 "/>
<path style=" stroke:none;fill-rule:nonzero;fill:rgb(0%,0%,0%);fill-opacity:1;" d="M 7.097656 17.609375 C 6.925781 17.609375 6.765625 17.59375 6.609375 17.558594 L 6.609375 16.828125 C 6.664062 16.839844 6.71875 16.851562 6.773438 16.863281 C 6.832031 16.875 6.890625 16.878906 6.957031 16.878906 C 7.113281 16.878906 7.222656 16.832031 7.289062 16.742188 C 7.355469 16.644531 7.390625 16.488281 7.390625 16.257812 L 7.390625 13.046875 L 8.332031 13.046875 L 8.332031 16.179688 C 8.332031 16.648438 8.230469 17.007812 8.023438 17.246094 C 7.820312 17.488281 7.511719 17.609375 7.097656 17.609375 Z M 7.097656 17.609375 "/>
<path style=" stroke:none;fill-rule:nonzero;fill:rgb(0%,0%,0%);fill-opacity:1;" d="M 12.335938 14.777344 C 12.335938 15.363281 12.191406 15.808594 11.902344 16.109375 C 11.617188 16.414062 11.195312 16.566406 10.644531 16.566406 C 10.097656 16.566406 9.679688 16.414062 9.390625 16.109375 C 9.101562 15.800781 8.957031 15.355469 8.957031 14.773438 C 8.957031 14.195312 9.101562 13.753906 9.386719 13.449219 C 9.679688 13.144531 10.097656 12.988281 10.648438 12.988281 C 11.203125 12.988281 11.621094 13.140625 11.90625 13.445312 C 12.191406 13.746094 12.335938 14.191406 12.335938 14.777344 Z M 9.945312 14.777344 C 9.945312 15.449219 10.175781 15.785156 10.644531 15.785156 C 10.882812 15.785156 11.058594 15.703125 11.171875 15.542969 C 11.289062 15.378906 11.347656 15.121094 11.347656 14.777344 C 11.347656 14.429688 11.289062 14.175781 11.171875 14.007812 C 11.054688 13.84375 10.878906 13.757812 10.648438 13.757812 C 10.179688 13.757812 9.945312 14.097656 9.945312 14.777344 Z M 9.945312 14.777344 "/>
<path style=" stroke:none;fill-rule:nonzero;fill:rgb(0%,0%,0%);fill-opacity:1;" d="M 16.265625 16.519531 L 15.035156 16.519531 L 13.765625 14.074219 L 13.746094 14.074219 C 13.777344 14.457031 13.789062 14.75 13.789062 14.953125 L 13.789062 16.519531 L 12.960938 16.519531 L 12.960938 13.046875 L 14.183594 13.046875 L 15.449219 15.460938 L 15.460938 15.460938 C 15.441406 15.109375 15.429688 14.828125 15.429688 14.617188 L 15.429688 13.046875 L 16.265625 13.046875 Z M 16.265625 16.519531 "/>
<path style=" stroke:none;fill-rule:nonzero;fill:rgb(0%,0%,0%);fill-opacity:1;" d="M 18.5625 13.765625 C 18.339844 13.765625 18.164062 13.855469 18.039062 14.039062 C 17.914062 14.222656 17.851562 14.472656 17.851562 14.796875 C 17.851562 15.464844 18.105469 15.796875 18.613281 15.796875 C 18.769531 15.796875 18.917969 15.777344 19.0625 15.734375 C 19.207031 15.691406 19.351562 15.640625 19.496094 15.578125 L 19.496094 16.375 C 19.207031 16.503906 18.878906 16.566406 18.511719 16.566406 C 17.988281 16.566406 17.585938 16.414062 17.308594 16.109375 C 17.027344 15.808594 16.890625 15.367188 16.890625 14.789062 C 16.890625 14.433594 16.957031 14.117188 17.089844 13.847656 C 17.226562 13.574219 17.421875 13.363281 17.675781 13.21875 C 17.929688 13.070312 18.226562 12.996094 18.570312 12.996094 C 18.945312 12.996094 19.304688 13.078125 19.648438 13.242188 L 19.359375 13.976562 C 19.230469 13.917969 19.101562 13.867188 18.976562 13.828125 C 18.847656 13.785156 18.710938 13.765625 18.5625 13.765625 Z M 18.5625 13.765625 "/>
<path style=" stroke:none;fill-rule:nonzero;fill:rgb(0%,0%,0%);fill-opacity:1;" d="M 23.148438 16.519531 L 22.207031 16.519531 L 22.207031 15.105469 L 21.113281 15.105469 L 21.113281 16.519531 L 20.171875 16.519531 L 20.171875 13.046875 L 21.113281 13.046875 L 21.113281 14.335938 L 22.207031 14.335938 L 22.207031 13.046875 L 23.148438 13.046875 Z M 23.148438 16.519531 "/>
</g>
</svg>
