<?xml version="1.0" encoding="UTF-8"?>
<svg xmlns="http://www.w3.org/2000/svg" xmlns:xlink="http://www.w3.org/1999/xlink" width="469.5pt" height="357.74999pt" viewBox="0 0 469.5 357.74999" version="1.2">
<defs>
<clipPath id="clip1">
  <path d="M 55.875 0.0664062 L 413.625 0.0664062 L 413.625 357.433594 L 55.875 357.433594 Z M 55.875 0.0664062 "/>
</clipPath>
</defs>
<g id="surface1">
<g clip-path="url(#clip1)" clip-rule="nonzero">
<path style=" stroke:none;fill-rule:nonzero;fill:rgb(0%,0%,0%);fill-opacity:1;" d="M 124.671875 0.0664062 C 86.835938 0.0664062 55.875 31.023438 55.875 68.863281 L 55.875 289.015625 C 55.875 326.855469 86.835938 357.816406 124.671875 357.816406 L 344.828125 357.816406 C 382.664062 357.816406 413.625 326.855469 413.625 289.015625 L 413.625 68.863281 C 413.625 31.023438 382.664062 0.0664062 344.828125 0.0664062 Z M 124.671875 27.585938 L 344.828125 27.585938 C 367.804688 27.585938 386.105469 45.882812 386.105469 68.863281 L 386.105469 289.015625 C 386.105469 311.996094 367.804688 330.296875 344.828125 330.296875 L 300.914062 330.296875 L 300.914062 219.304688 L 339.34375 219.304688 L 345.09375 175.015625 L 300.914062 175.015625 L 300.914062 146.796875 C 300.914062 133.976562 304.484375 125.246094 323.003906 125.246094 L 346.65625 125.246094 L 346.65625 85.632812 C 342.554688 85.082031 328.519531 83.914062 312.203125 83.914062 C 278.132812 83.914062 254.851562 104.523438 254.851562 142.390625 L 254.851562 175.015625 L 220.992188 174.910156 L 220.992188 219.199219 L 254.851562 219.304688 L 254.851562 330.296875 L 124.671875 330.296875 C 101.695312 330.296875 83.394531 311.996094 83.394531 289.015625 L 83.394531 68.863281 C 83.394531 45.882812 101.695312 27.585938 124.671875 27.585938 Z M 124.671875 27.585938 "/>
</g>
</g>
</svg>
