<?xml version="1.0" encoding="UTF-8"?>
<svg xmlns="http://www.w3.org/2000/svg" xmlns:xlink="http://www.w3.org/1999/xlink" width="469.5pt" height="357.74999pt" viewBox="0 0 469.5 357.74999" version="1.2">
<defs>
<clipPath id="clip1">
  <path d="M 56.589844 1.492188 L 412.769531 1.492188 L 412.769531 357.433594 L 56.589844 357.433594 Z M 56.589844 1.492188 "/>
</clipPath>
</defs>
<g id="surface1">
<g clip-path="url(#clip1)" clip-rule="nonzero">
<path style=" stroke:none;fill-rule:nonzero;fill:rgb(0%,0%,0%);fill-opacity:1;" d="M 159.976562 1.492188 C 103.039062 1.492188 56.589844 47.941406 56.589844 104.878906 L 56.589844 254.394531 C 56.589844 311.222656 103.039062 357.671875 159.976562 357.671875 L 309.488281 357.671875 C 366.320312 357.671875 412.769531 311.222656 412.769531 254.285156 L 412.769531 104.878906 C 412.769531 47.941406 366.320312 1.492188 309.382812 1.492188 Z M 159.976562 28.890625 L 309.382812 28.890625 C 351.550781 28.890625 385.371094 62.710938 385.371094 104.878906 L 385.371094 254.285156 C 385.371094 296.453125 351.550781 330.273438 309.488281 330.273438 L 159.976562 330.273438 C 117.808594 330.273438 83.988281 296.453125 83.988281 254.394531 L 83.988281 104.878906 C 83.988281 62.710938 117.808594 28.890625 159.976562 28.890625 Z M 344.273438 56.289062 C 336.675781 56.289062 330.574219 62.390625 330.574219 69.988281 C 330.574219 77.589844 336.675781 83.6875 344.273438 83.6875 C 351.871094 83.6875 357.972656 77.589844 357.972656 69.988281 C 357.972656 62.390625 351.871094 56.289062 344.273438 56.289062 Z M 234.679688 83.6875 C 181.914062 83.6875 138.785156 126.820312 138.785156 179.582031 C 138.785156 232.347656 181.914062 275.476562 234.679688 275.476562 C 287.441406 275.476562 330.574219 232.347656 330.574219 179.582031 C 330.574219 126.820312 287.441406 83.6875 234.679688 83.6875 Z M 234.679688 111.085938 C 272.671875 111.085938 303.175781 141.589844 303.175781 179.582031 C 303.175781 217.578125 272.671875 248.078125 234.679688 248.078125 C 196.683594 248.078125 166.183594 217.578125 166.183594 179.582031 C 166.183594 141.589844 196.683594 111.085938 234.679688 111.085938 Z M 234.679688 111.085938 "/>
</g>
</g>
</svg>
