<?xml version="1.0" encoding="UTF-8"?>
<svg xmlns="http://www.w3.org/2000/svg" xmlns:xlink="http://www.w3.org/1999/xlink" width="469.5pt" height="357.74999pt" viewBox="0 0 469.5 357.74999" version="1.2">
<defs>
<clipPath id="clip1">
  <path d="M 59 6.144531 L 410 6.144531 L 410 357.433594 L 59 357.433594 Z M 59 6.144531 "/>
</clipPath>
</defs>
<g id="surface1">
<g clip-path="url(#clip1)" clip-rule="nonzero">
<path style=" stroke:none;fill-rule:nonzero;fill:rgb(0%,0%,0%);fill-opacity:1;" d="M 234.832031 6.144531 C 138.523438 6.144531 60.257812 84.410156 60.257812 180.71875 C 60.257812 215.546875 71.484375 247.441406 89.003906 274.71875 L 59 358.542969 L 152.371094 332.210938 C 177.128906 345.746094 204.617188 355.292969 234.832031 355.292969 C 331.140625 355.292969 409.402344 277.027344 409.402344 180.71875 C 409.402344 84.410156 331.140625 6.144531 234.832031 6.144531 Z M 234.832031 33.003906 C 316.558594 33.003906 382.546875 98.992188 382.546875 180.71875 C 382.546875 262.445312 316.558594 328.433594 234.832031 328.433594 C 206.820312 328.433594 180.90625 320.566406 158.453125 307.03125 L 153.523438 303.988281 L 101.800781 318.46875 L 118.589844 271.886719 L 114.496094 266.222656 C 97.292969 241.988281 87.113281 212.609375 87.113281 180.71875 C 87.113281 98.992188 153.105469 33.003906 234.832031 33.003906 Z M 169.367188 86.71875 C 166.324219 86.71875 161.289062 87.976562 156.984375 93.011719 C 152.789062 97.941406 140.828125 110.007812 140.828125 134.558594 C 140.828125 159 157.40625 182.710938 159.714844 186.070312 C 162.023438 189.425781 192.339844 239.679688 238.710938 261.289062 C 249.726562 266.429688 258.332031 269.472656 265.046875 271.78125 C 276.167969 275.558594 286.238281 275.035156 294.210938 273.773438 C 303.128906 272.304688 321.59375 261.710938 325.472656 250.066406 C 329.25 238.417969 329.355469 228.453125 328.097656 226.355469 C 327.046875 224.257812 323.902344 222.996094 319.285156 220.585938 C 314.667969 218.066406 291.902344 206 287.707031 204.429688 C 283.511719 202.644531 280.363281 201.910156 277.214844 206.839844 C 274.171875 211.875 265.359375 223.101562 262.632812 226.355469 C 259.90625 229.710938 257.28125 230.132812 252.664062 227.613281 C 247.945312 225.097656 233.046875 219.851562 215.421875 202.855469 C 201.679688 189.636719 192.339844 173.375 189.71875 168.339844 C 186.992188 163.304688 189.402344 160.679688 191.710938 158.265625 C 193.808594 155.957031 196.328125 152.390625 198.636719 149.453125 C 200.945312 146.621094 201.679688 144.417969 203.253906 141.167969 C 204.824219 137.808594 204.089844 134.871094 202.9375 132.457031 C 201.679688 129.941406 192.445312 105.390625 188.667969 95.425781 C 184.894531 85.773438 181.011719 87.03125 178.179688 86.925781 C 175.554688 86.71875 172.410156 86.71875 169.367188 86.71875 Z M 169.367188 86.71875 "/>
</g>
</g>
</svg>
