<?xml version="1.0" encoding="UTF-8"?>
<svg xmlns="http://www.w3.org/2000/svg" xmlns:xlink="http://www.w3.org/1999/xlink" width="469.5pt" height="357.74999pt" viewBox="0 0 469.5 357.74999" version="1.2">
<defs>
<clipPath id="clip1">
  <path d="M 55.875 0.0664062 L 413.625 0.0664062 L 413.625 357.433594 L 55.875 357.433594 Z M 55.875 0.0664062 "/>
</clipPath>
</defs>
<g id="surface1">
<g clip-path="url(#clip1)" clip-rule="nonzero">
<path style=" stroke:none;fill-rule:nonzero;fill:rgb(0.389099%,0.389099%,0.389099%);fill-opacity:1;" d="M 413.625 303.445312 C 413.625 333.488281 389.269531 357.785156 359.285156 357.785156 L 110.214844 357.785156 C 80.171875 357.785156 55.875 333.425781 55.875 303.445312 L 55.875 54.4375 C 55.875 24.453125 80.171875 0.0976562 110.214844 0.0976562 L 359.222656 0.0976562 C 389.269531 0.0976562 413.5625 24.453125 413.5625 54.4375 Z M 413.625 303.445312 "/>
</g>
<path style=" stroke:none;fill-rule:nonzero;fill:rgb(100%,100%,100%);fill-opacity:1;" d="M 230.699219 66.304688 C 166.160156 66.304688 113.921875 118.605469 113.921875 183.082031 C 113.921875 230.929688 142.730469 271.980469 183.839844 290.09375 C 183.53125 281.933594 183.78125 272.164062 185.882812 263.324219 C 188.167969 253.804688 200.902344 199.648438 200.902344 199.648438 C 200.902344 199.648438 197.132812 192.230469 197.132812 181.164062 C 197.132812 163.855469 207.210938 150.9375 219.636719 150.9375 C 230.207031 150.9375 235.398438 158.910156 235.398438 168.429688 C 235.398438 179.125 228.535156 195.074219 225.074219 209.851562 C 222.109375 222.214844 231.257812 232.351562 243.496094 232.351562 C 265.628906 232.351562 280.527344 203.914062 280.527344 170.222656 C 280.527344 144.628906 263.28125 125.464844 231.9375 125.464844 C 196.515625 125.464844 174.445312 151.863281 174.445312 181.414062 C 174.445312 191.550781 177.472656 198.785156 182.171875 204.285156 C 184.335938 206.882812 184.644531 207.871094 183.839844 210.777344 C 183.347656 212.941406 181.988281 218.132812 181.492188 220.113281 C 180.6875 223.078125 178.339844 224.128906 175.679688 223.078125 C 159.359375 216.464844 151.757812 198.597656 151.757812 178.507812 C 151.757812 145.3125 179.699219 105.5 235.277344 105.5 C 279.847656 105.5 309.273438 137.832031 309.273438 172.386719 C 309.273438 218.257812 283.804688 252.445312 246.21875 252.445312 C 233.605469 252.445312 221.738281 245.582031 217.65625 237.855469 C 217.65625 237.855469 210.855469 264.808594 209.433594 269.9375 C 206.960938 278.902344 202.078125 287.988281 197.6875 294.976562 C 208.199219 298.066406 219.324219 299.734375 230.824219 299.734375 C 295.363281 299.734375 347.601562 247.4375 347.601562 182.957031 C 347.539062 118.667969 295.179688 66.304688 230.699219 66.304688 Z M 230.699219 66.304688 "/>
</g>
</svg>
