<?xml version="1.0" encoding="UTF-8"?>
<svg xmlns="http://www.w3.org/2000/svg" xmlns:xlink="http://www.w3.org/1999/xlink" width="469.5pt" height="357.74999pt" viewBox="0 0 469.5 357.74999" version="1.2">
<defs>
<clipPath id="clip1">
  <path d="M 16 7.105469 L 453.851562 7.105469 L 453.851562 350.441406 L 16 350.441406 Z M 16 7.105469 "/>
</clipPath>
</defs>
<g id="surface1">
<g clip-path="url(#clip1)" clip-rule="nonzero">
<path style=" stroke:none;fill-rule:nonzero;fill:rgb(0%,0%,0%);fill-opacity:1;" d="M 234.957031 7.105469 C 171.191406 7.105469 114.753906 13.6875 80.429688 18.808594 C 52.332031 22.957031 29.976562 44.902344 24.847656 73.066406 C 20.449219 97.695312 16.050781 133.660156 16.050781 178.773438 C 16.050781 223.886719 20.449219 259.851562 24.847656 284.480469 C 29.976562 312.644531 52.332031 334.46875 80.429688 338.738281 C 114.875 343.859375 171.558594 350.441406 234.957031 350.441406 C 298.355469 350.441406 354.914062 343.859375 389.363281 338.738281 L 389.488281 338.738281 C 417.582031 334.589844 439.9375 312.644531 445.066406 284.480469 C 449.464844 259.730469 453.863281 223.761719 453.863281 178.773438 C 453.863281 133.660156 449.464844 97.695312 444.945312 73.066406 C 439.9375 44.902344 417.582031 22.957031 389.488281 18.808594 C 355.160156 13.6875 298.722656 7.105469 234.957031 7.105469 Z M 234.957031 38.316406 C 296.523438 38.316406 351.617188 44.65625 384.84375 49.65625 C 399.503906 51.851562 411.351562 63.3125 414.164062 78.550781 C 418.316406 101.597656 422.589844 135.734375 422.589844 178.773438 C 422.589844 221.8125 418.316406 255.949219 414.285156 278.871094 C 411.476562 294.234375 399.625 305.695312 384.84375 307.890625 C 351.375 312.765625 296.15625 319.230469 234.957031 319.230469 C 173.757812 319.230469 118.417969 312.765625 85.070312 307.890625 C 70.410156 305.695312 58.441406 294.234375 55.628906 278.871094 C 51.597656 255.828125 47.324219 221.8125 47.324219 178.773438 C 47.324219 135.613281 51.597656 101.597656 55.628906 78.550781 C 58.441406 63.3125 70.289062 51.851562 84.949219 49.777344 L 85.070312 49.777344 C 118.296875 44.78125 173.390625 38.316406 234.957031 38.316406 Z M 172.414062 100.742188 L 172.414062 256.804688 L 328.773438 178.773438 Z M 172.414062 100.742188 "/>
</g>
</g>
</svg>
